<?xml version="1.0" encoding="UTF-8"?>
<svg xmlns="http://www.w3.org/2000/svg" xmlns:xlink="http://www.w3.org/1999/xlink" width="925pt" height="113pt" viewBox="0 0 925 113" version="1.1">
<g id="surface1">
<path style=" stroke:none;fill-rule:evenodd;fill:rgb(13.699341%,12.199402%,12.5%);fill-opacity:1;" d="M 1.085938 4.585938 C 1.007813 8.851563 0.925781 13.117188 0.84375 17.378906 C 21.148438 17.378906 41.453125 17.378906 61.757813 17.378906 C 82.484375 19.488281 99.242188 32.960938 100.449219 54.421875 C 101.046875 79.980469 82.535156 96.054688 60.113281 95.753906 C 49.03125 95.6875 44.703125 93.792969 44.472656 85.292969 C 44.472656 69.238281 44.472656 53.1875 44.472656 37.136719 C 44.460938 31.957031 44.699219 27.980469 48.175781 23.964844 C 49.3125 22.085938 47.769531 21.71875 45.011719 23.082031 C 39.929688 24.257813 36.164063 23.847656 31.714844 23.964844 C 32.957031 26.023438 33.035156 28.082031 32.949219 30.140625 C 32.949219 49.757813 32.949219 69.378906 32.949219 88.996094 C 32.878906 95.394531 29.019531 98.472656 21.835938 99.285156 C 16.980469 99.453125 16.59375 103.285156 21.933594 102.683594 C 36.074219 101.441406 40.734375 101.429688 57.015625 102.8125 C 87.816406 104.644531 113.902344 86.953125 114.03125 56.480469 C 113.070313 26.332031 91.261719 9.96875 65.050781 10.382813 C 47.710938 10.371094 30.367188 10.359375 13.023438 10.347656 C 7.699219 9.996094 3.722656 8.078125 1.085938 4.585938 "/>
<path style=" stroke:none;fill-rule:evenodd;fill:rgb(13.699341%,12.199402%,12.5%);fill-opacity:1;" d="M 112.089844 27.613281 C 108.703125 27.9375 108.21875 24.15625 112.042969 24.140625 C 125.105469 24.140625 138.167969 24.140625 151.230469 24.140625 C 163.496094 24.242188 169.632813 34.984375 169.835938 43.238281 C 169.644531 53.960938 164.160156 58.753906 157.433594 60.851563 C 154.335938 61.898438 154.941406 63.347656 157.433594 65.8125 C 167.601563 75.816406 177.769531 85.820313 187.941406 95.824219 C 198.34375 107.132813 209.308594 109.433594 220.433594 109.214844 C 225.644531 109.175781 225.925781 112.976563 220.679688 112.9375 C 213.40625 112.9375 206.128906 112.9375 198.855469 112.9375 C 193.5625 112.363281 188.269531 110.664063 182.980469 106.488281 C 167.898438 95.371094 159.828125 83.171875 148.257813 71.515625 C 144.8125 67.257813 140.546875 64.269531 135.605469 62.339844 C 133.46875 61.867188 133.90625 59.605469 135.605469 59.859375 C 148.738281 61.8125 157.03125 57.953125 156.6875 43.734375 C 156.65625 35.554688 151.839844 29.734375 143.046875 29.101563 C 139.65625 29.101563 136.269531 29.101563 132.878906 29.101563 C 132.878906 48.449219 132.878906 67.796875 132.878906 87.140625 C 132.855469 91.558594 134.519531 93.746094 137.839844 93.769531 C 139.242188 93.769531 140.648438 93.769531 142.054688 93.769531 C 146.640625 93.921875 146.640625 97.796875 142.054688 97.808594 C 132.546875 97.808594 123.039063 97.808594 113.53125 97.808594 C 108.757813 97.746094 108.863281 93.773438 113.53125 93.800781 C 114.769531 93.800781 116.011719 93.800781 117.253906 93.800781 C 120.828125 93.746094 121.316406 90.53125 121.21875 87.242188 C 121.21875 69.136719 121.21875 52.664063 121.21875 34.558594 C 121.207031 29.550781 118.03125 27.234375 112.089844 27.613281 "/>
<path style=" stroke:none;fill-rule:evenodd;fill:rgb(13.699341%,12.199402%,12.5%);fill-opacity:1;" d="M 184.796875 97.863281 C 184.796875 77.363281 184.796875 56.863281 184.796875 36.359375 C 184.984375 30.285156 181.5625 27.367188 175.546875 27.609375 C 169.929688 27.570313 169.84375 23.699219 175.796875 24.109375 C 191.867188 24.429688 207.546875 24.574219 223.046875 24.109375 C 224.433594 24 225.613281 23.742188 226.296875 23.109375 C 227.539063 22.292969 229.027344 22.894531 228.800781 25.109375 C 228.800781 30.859375 228.800781 36.609375 228.800781 42.359375 C 228.484375 45.6875 224.667969 45.589844 224.296875 41.859375 C 224.25 36.023438 222.445313 30.949219 217.046875 30.859375 C 210.214844 30.859375 203.378906 30.859375 196.546875 30.859375 C 196.546875 48.027344 196.546875 65.195313 196.546875 82.363281 C 196.503906 89.300781 200.28125 91.324219 205.796875 91.113281 C 210.964844 91.113281 216.132813 91.113281 221.296875 91.113281 C 226.386719 91.152344 230.78125 88.144531 234.550781 82.363281 C 244.519531 64.960938 253.402344 47.28125 262.300781 29.609375 C 265.175781 24.203125 268.382813 19.445313 272.050781 15.359375 C 274.152344 12.796875 276.195313 14.671875 275.050781 17.109375 C 273.8125 21.59375 274.394531 25.894531 275.800781 30.109375 C 281.886719 46.109375 287.96875 62.113281 294.054688 78.113281 C 296.066406 82.664063 297.183594 87.480469 300.28125 90.394531 C 302.273438 92.058594 303.757813 91.269531 303.804688 89.363281 C 305.882813 71.53125 306.753906 53.898438 307.054688 36.359375 C 307.558594 27.851563 303.023438 27.472656 298.441406 27.359375 C 293.664063 27.460938 293.257813 23.964844 298.304688 24.109375 C 303.804688 24.109375 309.304688 24.109375 314.804688 24.109375 C 316.386719 24.238281 317.972656 25.105469 319.554688 27.609375 C 329.636719 42.277344 339.722656 56.945313 349.804688 71.613281 C 360.488281 55.363281 370.613281 39.109375 380.558594 22.859375 C 381.785156 21.15625 382.183594 20.425781 384.453125 20.132813 L 387.984375 20.105469 C 390.835938 20.085938 390.800781 22.175781 389.808594 22.859375 C 387.84375 24.066406 388.089844 25.917969 388.058594 27.859375 C 388.308594 45.195313 388.558594 62.527344 388.808594 79.863281 C 389.042969 87.527344 390.90625 94.285156 398.808594 93.863281 C 403.863281 94.082031 408.644531 93.199219 413.558594 92.863281 C 417.742188 92.222656 418.296875 96.449219 414.8125 96.863281 C 406.621094 98.589844 398.226563 99.289063 389.671875 99.175781 C 378.742188 99.261719 376.308594 94.585938 376.308594 86.863281 C 376.308594 72.445313 375.90625 59.035156 375.90625 44.617188 C 365.988281 60.703125 356.003906 76.0625 346.085938 92.148438 C 341.652344 90.035156 344.359375 85.167969 341.671875 81.660156 C 332.171875 68.078125 325.304688 58.445313 315.804688 44.859375 C 315.082031 59.113281 314.117188 73.363281 312.804688 87.613281 C 312.710938 91.542969 312.878906 94.769531 317.304688 94.613281 C 321.816406 94.425781 322.175781 97.765625 317.054688 97.613281 C 308.96875 97.613281 300.886719 97.613281 292.804688 97.613281 C 288.773438 97.042969 286.105469 93.476563 284.800781 89.363281 C 278.300781 72.363281 271.800781 55.363281 265.300781 38.359375 C 255.683594 58.324219 245.710938 78.167969 235.300781 97.863281 C 218.464844 97.863281 201.628906 97.863281 184.796875 97.863281 "/>
<path style=" stroke:none;fill-rule:evenodd;fill:rgb(13.699341%,12.199402%,12.5%);fill-opacity:1;" d="M 198.40625 53.535156 C 198.828125 57.164063 201.117188 61.460938 205.46875 61.589844 C 208.414063 61.589844 211.355469 61.65625 214.300781 61.65625 C 217.738281 61.558594 219.984375 63.332031 220.480469 67.839844 C 221.039063 70.726563 224.472656 70.253906 224.367188 67.664063 C 224.367188 63.246094 224.367188 58.832031 224.367188 54.417969 C 223.972656 53.058594 223.058594 52.335938 221.011719 53.003906 C 219.832031 53.464844 218.371094 53.535156 216.597656 53.535156 C 210.53125 53.535156 204.46875 53.535156 198.40625 53.535156 "/>
<path style=" stroke:none;fill-rule:evenodd;fill:rgb(13.699341%,12.199402%,12.5%);fill-opacity:1;" d="M 405.621094 55.363281 C 405.726563 54.339844 405.828125 53.3125 405.929688 52.289063 C 411.363281 52.289063 416.796875 52.289063 422.230469 52.289063 C 425.640625 52.230469 425.269531 53.917969 424.105469 55.09375 C 421.421875 57.632813 418.578125 60.492188 417.003906 63.667969 C 415.289063 67.808594 412.785156 67.792969 412.695313 63.976563 C 412.773438 58.878906 411.011719 55.710938 405.621094 55.363281 "/>
<path style=" stroke:none;fill-rule:evenodd;fill:rgb(13.699341%,12.199402%,12.5%);fill-opacity:1;" d="M 405.621094 19.6875 C 406.03125 14.457031 406.441406 9.230469 406.855469 4.003906 C 406.859375 -0.179688 410.09375 -0.226563 410.851563 3.386719 C 411.761719 6.925781 415.144531 9.332031 421.308594 9.535156 C 450.9375 10.050781 480.566406 10.5625 510.191406 11.074219 C 506.078125 14.402344 500.347656 16.910156 491.886719 16.855469 C 481.226563 16.855469 470.5625 16.855469 459.902344 16.855469 C 459.902344 44.023438 459.753906 70.640625 459.753906 97.808594 C 459.945313 101.863281 461.144531 105.121094 464.675781 105.1875 C 466.828125 105.1875 468.980469 105.1875 471.132813 105.1875 C 475.59375 105.066406 476.605469 109.238281 471.132813 109.1875 C 459.242188 109.1875 447.085938 109.082031 435.191406 109.082031 C 430.152344 109.152344 430.152344 105.210938 435.148438 105.210938 C 437.199219 105.210938 438.75 105.113281 440.800781 105.113281 C 444.5 105.347656 446.0625 102.0625 445.914063 97.5 C 445.914063 70.535156 445.914063 43.574219 445.914063 16.609375 C 436.996094 16.609375 428.074219 16.609375 419.15625 16.609375 C 414.269531 16.703125 409.796875 17.875 405.621094 19.6875 "/>
<path style=" stroke:none;fill-rule:evenodd;fill:rgb(13.699341%,12.199402%,12.5%);fill-opacity:1;" d="M 474.539063 27.355469 C 471.378906 27.578125 470.542969 23.835938 474.871094 24.058594 C 483.449219 24.058594 492.027344 24.058594 500.605469 24.058594 C 497.480469 46.054688 499.136719 65.972656 498.957031 87.972656 C 498.566406 92.65625 501.257813 94.070313 505.714844 93.910156 C 509.929688 93.910156 509.867188 97.6875 505.523438 97.875 C 497.09375 97.875 489.226563 97.875 480.792969 97.875 C 477.269531 98.253906 476.703125 93.722656 480.792969 93.910156 C 485.261719 94.351563 487.402344 90.828125 487.214844 87.679688 C 487.339844 69.683594 487.464844 53.007813 487.589844 35.007813 C 487.371094 29.921875 484.789063 28.382813 481.550781 27.835938 C 479.214844 27.675781 476.878906 27.515625 474.539063 27.355469 "/>
<path style=" stroke:none;fill-rule:evenodd;fill:rgb(13.699341%,12.199402%,12.5%);fill-opacity:1;" d="M 495.519531 55.398438 C 518.300781 56.917969 538.8125 56.710938 560.464844 55.777344 C 567.769531 55.367188 558.335938 61.460938 550.375 61.4375 C 532.4375 61.996094 515.65625 62.011719 495.519531 63.136719 C 495.519531 60.496094 495.519531 58.039063 495.519531 55.398438 "/>
<path style=" stroke:none;fill-rule:evenodd;fill:rgb(13.699341%,12.199402%,12.5%);fill-opacity:1;" d="M 552.8125 15.738281 C 555.820313 14.8125 558.445313 15.421875 556.304688 17.871094 C 554.097656 21.03125 552.796875 24.867188 552.8125 29.695313 C 552.8125 49.730469 552.8125 69.453125 552.8125 89.488281 C 552.640625 93.183594 556.09375 94.472656 562.808594 94.621094 C 572.578125 94.980469 575.253906 92.105469 575.109375 86.3125 C 575.109375 69.316406 575.109375 52.316406 575.109375 35.320313 C 575.199219 31.445313 575.121094 27.699219 569.875 27.757813 C 568.519531 27.757813 567.160156 27.757813 565.804688 27.757813 C 560.523438 27.921875 560.148438 24.085938 565.609375 24.074219 C 580.464844 24.074219 595.316406 24.074219 610.171875 24.074219 C 611.996094 24.074219 614.421875 22.71875 616.246094 22.71875 C 618.007813 22.769531 618.644531 24.789063 618.738281 26.789063 C 618.738281 30.992188 618.738281 35.195313 618.738281 39.398438 C 618.5 43.414063 615.078125 42.957031 615.054688 39.390625 C 614.632813 35.238281 613.011719 30.503906 607.683594 30.667969 C 600.898438 30.667969 594.109375 30.667969 587.324219 30.667969 C 587.324219 48.828125 587.324219 66.988281 587.324219 85.152344 C 587.5625 89.109375 589.726563 91.375 594.695313 91.160156 C 601.15625 91.160156 607.621094 91.160156 614.085938 91.160156 C 619.4375 91 623.363281 86.558594 626.492188 79.71875 C 634.246094 63.304688 642.003906 46.890625 649.757813 30.472656 C 647.109375 23.136719 641.019531 19.96875 633.085938 19.03125 C 626.824219 18.933594 627.105469 14.589844 633.085938 14.769531 C 638.382813 14.769531 643.683594 14.769531 648.984375 14.769531 C 655.148438 14.859375 659.292969 19.578125 662.363281 24.851563 C 673.800781 45.597656 685.242188 66.34375 696.679688 87.089844 C 700.941406 93.390625 706.230469 99.308594 716.457031 103.375 C 719.78125 104.273438 724.496094 104.460938 729.058594 103.652344 C 733.984375 102.378906 734.90625 106.960938 731.09375 107.734375 C 724.558594 109.109375 714.261719 108.996094 705.3125 108.417969 C 697.097656 107.539063 689.476563 103.679688 685.046875 96.007813 C 675.222656 77.589844 665.398438 59.167969 655.574219 40.75 C 654.257813 38.480469 653.425781 39.386719 652.667969 40.75 C 645.429688 56.195313 638.191406 71.640625 630.953125 87.089844 C 630.035156 90.214844 629.539063 92.976563 629.527344 95.785156 C 629.53125 96.992188 629.316406 97.742188 628.023438 97.753906 C 599.117188 97.753906 567.414063 97.753906 537.109375 97.753906 C 537.234375 97.179688 536.949219 96.472656 539.152344 94.980469 C 539.9375 94.328125 540.492188 92.773438 540.40625 89.996094 C 540.535156 73.453125 540.664063 56.90625 540.792969 40.359375 C 540.890625 33.5 540.65625 29.957031 541.867188 25.878906 C 544.019531 21.261719 548.714844 16.734375 552.8125 15.738281 "/>
<path style=" stroke:none;fill-rule:evenodd;fill:rgb(13.699341%,12.199402%,12.5%);fill-opacity:1;" d="M 588.902344 53.71875 C 589.328125 57.347656 591.613281 61.644531 595.96875 61.773438 C 598.910156 61.773438 601.855469 61.839844 604.796875 61.839844 C 608.234375 61.742188 610.480469 63.515625 610.976563 68.023438 C 611.539063 70.910156 614.96875 70.4375 614.863281 67.84375 C 614.863281 63.429688 614.863281 59.015625 614.863281 54.601563 C 614.46875 53.242188 613.558594 52.519531 611.507813 53.1875 C 610.328125 53.648438 608.867188 53.71875 607.09375 53.71875 C 601.027344 53.71875 594.964844 53.71875 588.902344 53.71875 "/>
<path style=" stroke:none;fill-rule:evenodd;fill:rgb(13.699341%,12.199402%,12.5%);fill-opacity:1;" d="M 684.871094 38.714844 C 684.609375 41.875 681.066406 41.171875 681.269531 38.714844 C 681.519531 34.128906 681.480469 29.445313 680.789063 24.546875 C 680.238281 22.011719 681.679688 21.25 684.871094 22.148438 C 690.074219 23.824219 695.042969 24.085938 700.246094 24.183594 C 732.535156 25.242188 761.273438 24.066406 792.886719 23.109375 C 804.476563 18.375 799.957031 26.796875 801.558594 38.714844 C 801.449219 43.109375 797.515625 42.875 797.40625 38.714844 C 796.574219 33.773438 793.785156 31.253906 789.824219 31.269531 C 783.179688 31.269531 777.464844 31.269531 770.820313 31.269531 C 770.820313 48.878906 770.820313 66.484375 770.820313 84.09375 C 770.574219 89.816406 773.761719 91.671875 778.511719 91.773438 C 785.078125 91.773438 791.644531 91.773438 798.210938 91.773438 C 804.117188 91.484375 809.554688 89.160156 814.523438 84.8125 C 814.523438 66.085938 814.523438 47.355469 814.523438 28.628906 C 814.683594 25.429688 813.863281 23.695313 812.605469 22.628906 C 811.304688 21.472656 811.546875 20.40625 813.324219 20.226563 C 818.296875 19.996094 822.988281 19.488281 827.488281 18.785156 C 827.488281 43.914063 827.488281 69.046875 827.488281 94.175781 C 827.761719 98.523438 828.40625 101.574219 835.894531 101.859375 C 841.609375 101.621094 842.039063 106.730469 835.894531 106.179688 C 826.289063 106.101563 816.683594 106.019531 807.082031 105.941406 C 800.808594 106.449219 800.820313 101.390625 806.601563 101.859375 C 813.886719 101.835938 814.65625 96.953125 814.511719 91.300781 C 811.855469 94.746094 808.34375 97.453125 804.441406 97.777344 C 785.710938 97.777344 766.984375 97.777344 748.257813 97.777344 C 743.402344 98.066406 742.660156 93.871094 748.496094 94.175781 C 753.953125 94.292969 757.234375 91.96875 757.382813 88.652344 C 757.382813 68.886719 757.382813 49.117188 757.382813 29.347656 C 748.246094 30.597656 738.617188 31.511719 727.609375 31.980469 C 727.609375 50.46875 727.609375 68.488281 727.609375 86.976563 C 727.902344 91.835938 730.226563 93.6875 734.8125 94.175781 C 740.472656 93.699219 740.554688 98.175781 735.054688 97.777344 C 725.527344 97.777344 716.003906 97.777344 706.480469 97.777344 C 703.820313 97.820313 702.53125 94.078125 707.078125 94.046875 C 712.179688 94.265625 715.09375 90.890625 714.886719 86.972656 C 714.886719 68.5625 714.886719 50.15625 714.886719 31.746094 C 708.320313 31.667969 701.761719 31.589844 695.195313 31.511719 C 687.480469 31.160156 684.898438 33.71875 684.871094 38.714844 "/>
<path style=" stroke:none;fill-rule:evenodd;fill:rgb(13.699341%,12.199402%,12.5%);fill-opacity:1;" d="M 772.347656 53.71875 C 772.769531 57.347656 775.054688 61.644531 779.410156 61.773438 C 782.351563 61.773438 785.296875 61.839844 788.238281 61.839844 C 791.679688 61.742188 793.921875 63.515625 794.421875 68.023438 C 794.980469 70.910156 798.414063 70.4375 798.304688 67.84375 C 798.304688 63.429688 798.304688 59.015625 798.304688 54.601563 C 797.910156 53.242188 797 52.519531 794.949219 53.1875 C 793.769531 53.648438 792.3125 53.71875 790.535156 53.71875 C 784.472656 53.71875 778.410156 53.71875 772.347656 53.71875 "/>
<path style=" stroke:none;fill-rule:evenodd;fill:rgb(13.699341%,12.199402%,12.5%);fill-opacity:1;" d="M 826.300781 52.410156 C 859.550781 56.164063 860.628906 19.292969 835.859375 15.90625 C 824.4375 15.644531 814.183594 14.214844 799.359375 17.355469 C 798.070313 17.90625 797.128906 17.027344 796.316406 15.1875 C 794.511719 11.441406 795.429688 10.375 799.648438 10.691406 C 813.015625 10.554688 826.941406 10.253906 841.074219 10.113281 C 858.609375 10.675781 866.582031 19.949219 866.859375 32.128906 C 867.234375 45.179688 859.71875 52.132813 849.90625 53.5625 C 848.632813 53.78125 846.859375 53.839844 849.328125 56.898438 C 860.28125 68.46875 870.277344 80.152344 882.214844 91.230469 C 893.824219 102.453125 903.519531 107.210938 919.003906 106.578125 C 925.335938 105.773438 925.492188 111.136719 920.453125 110.929688 C 911.855469 111.40625 903.070313 111.308594 894.089844 110.640625 C 885.796875 109.742188 878.652344 106.171875 872.652344 99.921875 C 859.363281 87.046875 847.34375 73.382813 836.734375 59.363281 C 833.796875 55.160156 830.339844 56.25 825.863281 56.171875 C 826.058594 55.015625 826.105469 53.566406 826.300781 52.410156 "/>
</g>
</svg>
